<svg width="86" height="28" viewBox="0 0 86 28" fill="none" xmlns="http://www.w3.org/2000/svg">
<path fill-rule="evenodd" clip-rule="evenodd" d="M0.14917 10.8238C0.14917 4.86782 5.16871 0.018671 11.1395 0.018671C14.4419 0.018671 16.7933 1.30997 18.5632 2.99655L16.476 5.07864C15.208 3.89255 13.4909 2.9702 11.1395 2.9702C6.78039 2.9702 3.37232 6.47535 3.37232 10.8238C3.37232 15.1722 6.78039 18.6774 11.1395 18.6774C13.9662 18.6774 15.5778 17.5442 16.6081 16.5162C17.4537 15.6729 18.0083 14.4607 18.2198 12.8005H11.1395V9.84873H21.0993C21.205 10.3758 21.2578 11.0083 21.2578 11.6936C21.2578 13.9073 20.6502 16.6482 18.6951 18.5983C16.7933 20.5748 14.3624 21.6289 11.1395 21.6289C5.16871 21.6289 0.14917 16.78 0.14917 10.8238Z" fill="#5F6368"/>
<path fill-rule="evenodd" clip-rule="evenodd" d="M29.3071 18.888C27.1935 18.888 25.3707 17.1487 25.3707 14.6713C25.3707 12.1676 27.1935 10.4546 29.3071 10.4546C31.4205 10.4546 33.2433 12.1676 33.2433 14.6713C33.2433 17.1487 31.4205 18.888 29.3071 18.888ZM29.3071 7.71394C25.4499 7.71394 22.306 10.6391 22.306 14.6713C22.306 18.6772 25.4499 21.6289 29.3071 21.6289C33.1641 21.6289 36.3079 18.6772 36.3079 14.6713C36.3079 10.6391 33.1641 7.71394 29.3071 7.71394Z" fill="#5F6368"/>
<path fill-rule="evenodd" clip-rule="evenodd" d="M44.5796 18.888C42.4662 18.888 40.6431 17.1487 40.6431 14.6713C40.6431 12.1676 42.4662 10.4546 44.5796 10.4546C46.693 10.4546 48.5158 12.1676 48.5158 14.6713C48.5158 17.1487 46.693 18.888 44.5796 18.888ZM44.5796 7.71394C40.7224 7.71394 37.5785 10.6391 37.5785 14.6713C37.5785 18.6772 40.7224 21.6289 44.5796 21.6289C48.4365 21.6289 51.5806 18.6772 51.5806 14.6713C51.5806 10.6391 48.4365 7.71394 44.5796 7.71394Z" fill="#5F6368"/>
<path fill-rule="evenodd" clip-rule="evenodd" d="M59.8121 18.8882C57.6987 18.8882 55.9285 17.1226 55.9285 14.6979C55.9285 12.2471 57.6987 10.4549 59.8121 10.4549C61.8991 10.4549 63.5372 12.2471 63.5372 14.6979C63.5372 17.1226 61.8991 18.8882 59.8121 18.8882ZM63.3257 8.13562V9.269H63.2202C62.5333 8.45206 61.2122 7.71418 59.5479 7.71418C56.0606 7.71418 52.8639 10.7711 52.8639 14.6979C52.8639 18.5984 56.0606 21.6291 59.5479 21.6291C61.2122 21.6291 62.5333 20.8913 63.2202 20.0478H63.3257V21.0494C63.3257 23.711 61.8991 25.1341 59.6008 25.1341C57.7251 25.1341 56.5626 23.7901 56.087 22.6569L53.4187 23.7637C54.1848 25.6086 56.2191 27.875 59.6008 27.875C63.1938 27.875 66.2318 25.7668 66.2318 20.6277V8.13562H63.3257Z" fill="#5F6368"/>
<mask id="mask0_3674_111366" style="mask-type:luminance" maskUnits="userSpaceOnUse" x="0" y="0" width="86" height="28">
<path fill-rule="evenodd" clip-rule="evenodd" d="M0 28H85.857V0H0V28Z" fill="white"/>
</mask>
<g mask="url(#mask0_3674_111366)">
<path fill-rule="evenodd" clip-rule="evenodd" d="M71.41 21.207H68.3453V0.756119H71.41V21.207Z" fill="#5F6368"/>
<path fill-rule="evenodd" clip-rule="evenodd" d="M79.5732 10.4021C80.7887 10.4021 81.8189 11.0083 82.1624 11.8779L75.9276 14.4607C75.8482 11.7725 78.0146 10.4021 79.5732 10.4021ZM79.811 18.8882C78.2524 18.8882 77.1428 18.1767 76.4296 16.78L85.7554 12.9322L85.4384 12.1414C84.8572 10.5866 83.087 7.71394 79.4676 7.71394C75.8746 7.71394 72.8894 10.5339 72.8894 14.6715C72.8894 18.572 75.8482 21.6289 79.811 21.6289C83.0077 21.6289 84.8572 19.6788 85.6231 18.5456L83.2455 16.9644C82.453 18.124 81.3698 18.8882 79.811 18.8882Z" fill="#5F6368"/>
</g>
</svg>
